<?xml version="1.0" encoding="UTF-8" standalone="no"?>
<svg
   height="512"
   width="512"
   version="1.1"
   viewBox="0 0 512 512"
   data-name="Layer 1"
   id="Layer_1"
   sodipodi:docname="mikrotik.svg"
   inkscape:version="1.2.2 (b0a8486541, 2022-12-01)"
   inkscape:export-filename="mikrotik.png"
   inkscape:export-xdpi="96"
   inkscape:export-ydpi="96"
   xmlns:inkscape="http://www.inkscape.org/namespaces/inkscape"
   xmlns:sodipodi="http://sodipodi.sourceforge.net/DTD/sodipodi-0.dtd"
   xmlns="http://www.w3.org/2000/svg"
   xmlns:svg="http://www.w3.org/2000/svg"
   xmlns:rdf="http://www.w3.org/1999/02/22-rdf-syntax-ns#"
   xmlns:cc="http://creativecommons.org/ns#"
   xmlns:dc="http://purl.org/dc/elements/1.1/">
  <sodipodi:namedview
     pagecolor="#ffffff"
     bordercolor="#666666"
     borderopacity="1"
     objecttolerance="10"
     gridtolerance="10"
     guidetolerance="10"
     inkscape:pageopacity="1"
     inkscape:pageshadow="2"
     inkscape:window-width="1920"
     inkscape:window-height="1027"
     id="namedview2202"
     showgrid="false"
     fit-margin-top="0"
     fit-margin-left="0"
     fit-margin-right="0"
     fit-margin-bottom="0"
     inkscape:zoom="1"
     inkscape:cx="-35.5"
     inkscape:cy="155"
     inkscape:window-x="-8"
     inkscape:window-y="-8"
     inkscape:window-maximized="1"
     inkscape:current-layer="Layer_1"
     inkscape:document-rotation="0"
     inkscape:showpageshadow="2"
     inkscape:pagecheckerboard="0"
     inkscape:deskcolor="#d1d1d1" />
  <metadata
     id="metadata4578">
    <rdf:RDF>
      <cc:Work
         rdf:about="">
        <dc:format>image/svg+xml</dc:format>
        <dc:type
           rdf:resource="http://purl.org/dc/dcmitype/StillImage" />
        <dc:title>ico</dc:title>
      </cc:Work>
    </rdf:RDF>
  </metadata>
  <defs
     id="defs4576" />
  <title
     id="title4569">ico</title>
  <g
     id="g72"
     transform="matrix(1.2307692,0,0,1.2307692,-59.076915,-59.076915)">
    <path
       id="path4571"
       style="fill:#33a5dd;stroke-width:9.75"
       d="M 256,100 A 156,156 0 1 0 412,256 156,156 0 0 0 256,100 Z m -95.16,72.4425 c 1.0725,0 1.17,0.4875 1.17,1.2675 A 175.5,175.5 0 0 0 217,295 175.5,175.5 0 0 0 343.75,343.75 C 238.06,386.65 126.8125,285.25 160.84,172.4425 Z M 208.7125,157.72 C 220.8025,241.4725 265.75,292.3675 357.4,296.56 A 113.0025,113.0025 0 0 1 208.7125,157.72 Z" />
  </g>
</svg>
